<?xml version="1.0" standalone="no"?>
<!DOCTYPE svg PUBLIC "-//W3C//DTD SVG 20010904//EN"
 "http://www.w3.org/TR/2001/REC-SVG-20010904/DTD/svg10.dtd">
<svg version="1.0" xmlns="http://www.w3.org/2000/svg"
 width="819.000000pt" height="460.000000pt" viewBox="0 0 819.000000 460.000000"
 preserveAspectRatio="xMidYMid meet">
<metadata>
Created by potrace 1.15, written by Peter Selinger 2001-2017
</metadata>
<g transform="translate(0.000000,460.000000) scale(0.100000,-0.100000)"
fill="#000000" stroke="none">
<path d="M2212 3527 c-29 -29 -52 -59 -52 -68 0 -23 67 -119 125 -179 29 -30
63 -75 75 -99 12 -23 76 -109 143 -190 67 -80 142 -178 167 -216 25 -39 93
-131 151 -205 104 -132 139 -186 139 -212 0 -8 -21 -34 -46 -58 -71 -69 -102
-124 -97 -173 9 -95 13 -106 73 -169 33 -34 56 -65 52 -68 -16 -14 -132 -59
-133 -52 -1 4 -2 35 -3 69 -1 54 -5 66 -31 93 l-30 32 -105 -5 c-94 -4 -226
-28 -318 -58 -19 -6 -45 -12 -59 -14 -23 -2 -22 0 15 39 22 22 56 65 76 94 32
48 35 58 31 108 -2 31 -12 68 -21 83 -21 33 -210 217 -227 220 -6 1 -100 4
-207 6 -148 3 -202 1 -225 -10 -16 -7 -66 -21 -110 -30 -44 -9 -96 -24 -115
-32 -51 -22 -169 -140 -195 -195 -21 -44 -24 -98 -5 -98 4 0 28 22 53 49 39
41 46 56 45 86 -1 20 5 43 14 51 8 9 54 24 101 34 48 11 106 25 129 33 31 10
86 13 193 11 233 -5 217 0 333 -113 89 -86 102 -104 117 -153 19 -65 13 -97
-26 -153 -38 -55 -200 -212 -205 -199 -8 20 -99 159 -140 214 -23 30 -51 73
-62 95 -11 22 -32 51 -47 65 -39 35 -115 154 -115 179 0 32 -13 26 -69 -33
-46 -49 -50 -57 -41 -81 14 -36 83 -135 115 -165 15 -14 40 -50 56 -80 17 -30
57 -91 89 -135 33 -44 82 -124 110 -178 46 -87 50 -98 33 -104 -10 -3 -65 -52
-123 -108 -58 -56 -118 -110 -135 -120 -29 -18 -395 -379 -395 -390 0 -11 34
-4 51 11 9 8 35 17 56 18 21 2 56 10 78 19 22 8 76 27 120 40 44 14 89 29 100
33 13 5 7 -7 -19 -34 -22 -23 -37 -44 -34 -47 6 -7 84 31 109 52 18 15 108 51
149 61 14 3 34 11 45 18 11 6 45 15 75 19 30 3 73 12 95 19 22 8 58 19 80 26
22 7 58 21 80 31 22 10 94 30 159 44 118 26 125 26 530 26 226 1 443 0 481 -1
l70 -1 67 -102 c37 -56 71 -120 77 -142 6 -22 29 -69 51 -105 22 -36 65 -116
95 -178 31 -61 59 -112 63 -112 3 0 30 23 59 52 l52 51 -19 27 c-10 14 -27 46
-36 71 -10 24 -30 64 -46 89 -69 113 -108 188 -114 220 -4 19 -22 55 -40 81
-19 25 -32 48 -30 50 3 2 152 4 333 3 180 -1 339 3 353 8 13 5 43 10 65 12 22
1 70 11 108 21 57 17 76 28 125 78 l57 58 -1 93 c0 85 -3 99 -35 162 -19 38
-45 85 -57 104 -13 19 -46 76 -74 125 -27 50 -66 112 -87 138 -21 27 -53 79
-72 115 -19 37 -41 78 -50 92 -10 14 -20 43 -24 64 -4 22 -15 51 -26 64 -10
14 -19 32 -19 42 0 10 -9 29 -20 43 -11 14 -20 28 -20 30 0 10 223 125 302
156 86 34 230 112 328 176 106 71 391 329 416 377 13 24 12 28 -5 40 -12 8
-53 15 -101 17 -45 1 -91 5 -103 8 -12 3 -191 7 -397 8 -349 3 -498 9 -564 21
-15 2 -91 6 -169 8 -78 2 -171 9 -207 15 -36 6 -83 13 -105 16 -22 4 -242 8
-489 10 -251 3 -474 9 -505 15 -31 6 -81 13 -111 16 -30 4 -93 14 -140 23
l-85 18 -30 56 c-16 31 -33 58 -36 61 -3 3 -29 -18 -57 -47z m343 -228 c37 -7
227 -13 500 -15 332 -3 469 -7 555 -19 63 -9 169 -18 235 -21 66 -2 172 -9
235 -15 63 -6 288 -12 500 -14 212 -2 396 -6 410 -9 14 -2 65 -7 113 -10 90
-6 107 -10 107 -26 0 -15 -156 -161 -213 -199 -91 -62 -240 -142 -327 -177
-47 -19 -94 -39 -104 -45 -11 -6 -85 -45 -164 -86 -151 -78 -161 -80 -162 -25
0 31 1 28 -15 66 -8 20 -15 59 -15 88 0 36 -7 64 -21 87 l-21 34 -55 -55 c-54
-54 -55 -55 -44 -94 20 -78 34 -177 24 -171 -5 3 -30 15 -58 27 -57 25 -115
76 -115 100 0 34 -15 29 -66 -21 l-51 -51 5 -88 c2 -48 2 -100 -2 -115 -6 -24
-10 -26 -39 -20 -41 9 -117 81 -117 112 0 43 -29 39 -81 -13 -45 -44 -49 -52
-43 -79 12 -49 13 -217 1 -242 -21 -47 -121 -18 -162 47 -14 22 -25 44 -25 49
0 5 -10 22 -23 38 -13 15 -27 37 -31 47 -6 17 -13 13 -62 -35 l-55 -54 -19 25
c-11 14 -41 68 -67 120 -30 61 -82 141 -148 225 -56 72 -124 164 -151 205 -27
41 -104 142 -172 223 -67 82 -131 166 -143 188 l-20 40 23 -5 c13 -3 50 -11
83 -17z m1433 -811 l43 -15 -83 -79 c-84 -79 -203 -155 -317 -201 -59 -25 -73
-23 -48 5 10 10 17 22 17 26 0 4 8 18 17 33 10 14 18 32 19 40 4 24 11 26 58
14 75 -19 88 -15 144 42 28 28 53 61 55 72 2 11 7 27 11 36 4 10 7 23 5 30 -4
36 0 43 19 27 9 -9 36 -22 60 -30z m170 -45 c7 -16 19 -41 28 -58 36 -66 52
-102 59 -134 12 -55 112 -233 169 -302 70 -85 223 -385 231 -454 9 -69 -5 -85
-76 -89 -31 -2 -62 -7 -69 -11 -7 -4 -204 -8 -437 -8 -405 0 -424 1 -438 19
-41 55 -185 322 -221 409 -22 55 -50 119 -62 142 l-22 42 32 17 c17 9 77 33
132 54 178 67 285 134 423 263 66 62 104 90 144 104 30 11 61 23 69 26 24 9
25 8 38 -20z m-1059 -331 c34 -62 59 -117 56 -122 -10 -16 -58 -12 -85 7 -39
26 -90 76 -90 88 0 7 9 20 20 30 12 11 20 31 20 51 0 31 9 68 15 62 2 -2 31
-54 64 -116z m139 -269 c22 -49 54 -122 71 -163 17 -41 58 -122 91 -180 32
-57 57 -106 55 -109 -3 -2 -175 -4 -382 -4 -390 0 -400 0 -591 -45 l-43 -10
103 106 c92 95 158 174 230 280 13 19 28 38 33 44 11 11 362 165 381 167 6 0
29 -38 52 -86z m-568 52 c30 -32 37 -101 10 -115 -18 -10 -541 -160 -557 -160
-5 0 -24 30 -41 68 l-33 67 22 15 c11 8 37 29 57 45 37 31 92 54 141 61 14 1
58 11 96 22 43 11 111 19 175 21 102 2 106 1 130 -24z m23 -207 c-2 -18 -11
-42 -19 -53 -7 -11 -31 -45 -51 -75 -21 -30 -76 -94 -123 -142 -71 -73 -91
-88 -121 -91 -20 -2 -41 -7 -47 -11 -6 -4 -41 -8 -76 -9 l-65 -2 35 36 c34 35
34 36 15 53 -11 10 -35 49 -55 86 l-35 69 67 20 c37 11 137 40 223 64 85 25
175 54 200 65 58 27 58 27 52 -10z m-637 -270 c25 -51 53 -100 60 -109 13 -14
7 -18 -52 -34 -36 -10 -82 -26 -102 -35 -121 -58 -176 -81 -247 -104 -44 -14
-85 -26 -93 -26 -7 0 -27 -7 -44 -16 -17 -9 -47 -16 -67 -17 -20 0 -45 -7 -56
-16 -11 -9 18 25 65 74 46 50 118 115 160 146 41 30 100 83 130 117 45 50 67
66 120 86 36 14 68 25 72 26 4 0 29 -42 54 -92z"/>
</g>
</svg>
